<svg xmlns="http://www.w3.org/2000/svg" height="40" viewBox="0 -960 960 960" width="40"><path d="M197.204-89.334q-22.466 0-39.972-13.406-17.507-13.406-23.588-35.215L13.661-568.008q-4.385-20.92 7.644-36.681 12.029-15.761 32.65-15.761h200.669l179.477-267.115q7.609-11.261 19.602-17.601 11.993-6.341 25.297-6.341t25.13 6.341q11.827 6.34 19.001 17.601L702.71-620.45h204.667q19.956 0 32.173 15.919 12.218 15.919 7.319 36.372L828.465-137.961q-6.103 21.627-23.1 35.127-16.996 13.5-39.714 13.5H197.204Zm22.463-96.435h520.666l93.652-337.869H126.681l92.986 337.869ZM480-276.262q33.029 0 55.876-22.848 22.848-22.847 22.848-55.876 0-33.029-22.848-55.876Q513.029-433.71 480-433.71q-33.029 0-55.876 22.848-22.848 22.847-22.848 55.876 0 33.029 22.848 55.876 22.847 22.848 55.876 22.848ZM370.392-620.45h217.695L478.87-779.782 370.392-620.45ZM219.667-185.769h520.666-520.666Z"/></svg>