<?xml version="1.0" encoding="utf-8"?>
<!-- Generator: Adobe Illustrator 24.0.0, SVG Export Plug-In . SVG Version: 6.00 Build 0)  -->
<svg version="1.1" id="Layer_1" xmlns="http://www.w3.org/2000/svg" xmlns:xlink="http://www.w3.org/1999/xlink" x="0px" y="0px"
	 viewBox="0 0 40 40" style="enable-background:new 0 0 40 40;" xml:space="preserve">
<style type="text/css">
	.st0{fill:#6D6E71;}
</style>
<path class="st0" d="M8.2,36.3c-0.6,0-1.2-0.2-1.7-0.6c-0.5-0.4-0.8-0.9-1-1.5l-5-17.9c-0.1-0.6,0-1.1,0.3-1.5s0.8-0.7,1.4-0.7h8.4
	L18.1,3c0.2-0.3,0.5-0.6,0.8-0.7C19.2,2.1,19.6,2,20,2c0.4,0,0.7,0.1,1,0.3c0.3,0.2,0.6,0.4,0.8,0.7l7.5,11.1h8.5
	c0.6,0,1,0.2,1.3,0.7c0.3,0.4,0.4,0.9,0.3,1.5l-4.9,17.9c-0.2,0.6-0.5,1.1-1,1.5c-0.5,0.4-1,0.6-1.7,0.6H8.2z M9.2,32.3h21.7
	l3.9-14.1H5.3C5.3,18.2,9.2,32.3,9.2,32.3z M20,28.5c0.9,0,1.7-0.3,2.3-1c0.6-0.6,1-1.4,1-2.3s-0.3-1.7-1-2.3c-0.6-0.6-1.4-1-2.3-1
	c-0.9,0-1.7,0.3-2.3,1c-0.6,0.6-1,1.4-1,2.3s0.3,1.7,1,2.3C18.3,28.2,19.1,28.5,20,28.5z M15.4,14.1h9.1L20,7.5L15.4,14.1z
	 M9.2,32.3h21.7C30.8,32.3,9.2,32.3,9.2,32.3z"/>
</svg>
